inDegrees=no
num_controls=7
num_derivatives=13
num_iterations=127
num_multipliers=7
num_parameters=0
num_slacks=7
num_states=26
objective=0.542750
objective_accelerations=0.066464
objective_balance=0.003449
objective_effort=0.048500
objective_height=0.415190
objective_ligament=0.009147
solver_duration=1661.720254
status=Solve_Succeeded
success=true
DataType=double
version=3
OpenSimVersion=4.5
endheader
time	/jointset/ground_pelvis/pelvis_tilt/value	/jointset/ground_pelvis/pelvis_tx/value	/jointset/ground_pelvis/pelvis_ty/value	/jointset/hip_r/hip_flexion_r/value	/jointset/hip_r/hip_adduction_r/value	/jointset/hip_r/hip_rotation_r/value	/jointset/back/lumbar_extension/value	/jointset/patellofemoral_r/patellar_flexion_r/value	/jointset/knee_r/knee_flexion_r/value	/jointset/knee_r/knee_adduction_r/value	/jointset/knee_r/knee_rotation_r/value	/jointset/ankle_r/ankle_angle_r/value	/jointset/subtalar_r/subtalar_angle_r/value	/jointset/ground_pelvis/pelvis_tilt/speed	/jointset/ground_pelvis/pelvis_tx/speed	/jointset/ground_pelvis/pelvis_ty/speed	/jointset/hip_r/hip_flexion_r/speed	/jointset/hip_r/hip_adduction_r/speed	/jointset/hip_r/hip_rotation_r/speed	/jointset/back/lumbar_extension/speed	/jointset/patellofemoral_r/patellar_flexion_r/speed	/jointset/knee_r/knee_flexion_r/speed	/jointset/knee_r/knee_adduction_r/speed	/jointset/knee_r/knee_rotation_r/speed	/jointset/ankle_r/ankle_angle_r/speed	/jointset/subtalar_r/subtalar_angle_r/speed	/forceset/tau_hip_flexion_r	/forceset/tau_hip_adduction_r	/forceset/tau_hip_rotation_r	/forceset/tau_knee_flexion_r	/forceset/tau_ankle_angle_r	/forceset/tau_subtalar_angle_r	/forceset/tau_lumbar_extension	lambda_cid13_p0	lambda_cid14_p0	lambda_cid14_p1	lambda_cid14_p2	lambda_cid14_p3	lambda_cid14_p4	lambda_cid14_p5	/jointset/ground_pelvis/pelvis_tilt/accel	/jointset/ground_pelvis/pelvis_tx/accel	/jointset/ground_pelvis/pelvis_ty/accel	/jointset/hip_r/hip_flexion_r/accel	/jointset/hip_r/hip_adduction_r/accel	/jointset/hip_r/hip_rotation_r/accel	/jointset/back/lumbar_extension/accel	/jointset/patellofemoral_r/patellar_flexion_r/accel	/jointset/knee_r/knee_flexion_r/accel	/jointset/knee_r/knee_adduction_r/accel	/jointset/knee_r/knee_rotation_r/accel	/jointset/ankle_r/ankle_angle_r/accel	/jointset/subtalar_r/subtalar_angle_r/accel	gamma_cid13_p0	gamma_cid14_p0	gamma_cid14_p1	gamma_cid14_p2	gamma_cid14_p3	gamma_cid14_p4	gamma_cid14_p5
0	-0.006285312049368427	0.09616471500989046	0.9427224272409026	0.1762555222360518	-0.2322149494626075	-0.2599740115403777	-0.038598046466844	0.07317863873451692	0.07317863873451017	0.1745303391636512	0.1729390090852082	0.03247278518263602	-0.003541423359766848	0	0	0	0	0	0	0	0	0	0	0	0	0	0.2345136454151095	-0.1648583931877951	-0.04323752547669973	-0.4026988655980719	0.382074480700869	-0.1390461869469427	-0.1324196623839841	-39.0303132245548	73.08015761052361	-37.88147987867725	-4.592383471356276	-22.76606349961441	-675.4516886804234	61.05649390203934	-2.830069934760875	-1.607956952082098	-0.7825374747774035	11.82622868616742	0.3621000754385339	2.884762486397519	-5.480702331487233	11.56588800111041	11.56588800111112	-3.822873375239508	0.3494540155262654	3.625497490952591	1.197130820781664	1.50318050023231e-07	8.111779919443963e-08	-1.012021312133282e-06	3.1461389322666e-07	5.648008092086635e-08	3.155215570041116e-08	-5.068879802083287e-07
0.01	-0.006418067266022668	0.09608558867121214	0.9426848124026782	0.1768279641340224	-0.2321952616647175	-0.2598201727768845	-0.03887601003271728	0.07374070544861497	0.07374070544860775	0.1743392193199702	0.1729422551160122	0.03264978192134198	-0.003480996331460776	-0.02644059257879216	-0.01573619263250487	-0.00750858552072471	0.1139544601843932	0.003880654748850417	0.03058586880132451	-0.05520900911699639	0.1119177960291589	0.1119177960291633	-0.03795365500849514	0.0006757583297556065	0.03524866385252955	0.01199339155910755	0.2292816535640371	-0.1729473778806375	-0.04201351649436149	-0.3969796330069444	0.3728246940484119	-0.1280752661415169	-0.1280186286951715	-39.04915253326266	70.52816550683723	-33.62426042757782	-5.201864797223372	-21.87244258471428	-675.8729849081583	68.98621434793635	-2.534477742654393	-1.543077857865742	-0.7328554616502703	11.09997505518093	0.3924094833752764	3.118293603021151	-5.483444592857722	10.9303633215898	10.93036332159	-3.741190445120719	-0.06928822186613981	3.451974172068399	1.186517969674167	2.05506586379565e-07	9.457917331429892e-08	-1.359329176024462e-06	3.17222414218924e-07	9.965994523840628e-08	-2.109655566487204e-07	-6.01151174872373e-07
0.02	-0.006811913173115205	0.09585177491840192	0.9425725444350608	0.1785239347079512	-0.2321384950575864	-0.2593659164201781	-0.03969455256797249	0.07540707770656845	0.07540707770656792	0.1737766471499119	0.172953073737384	0.0331747499665044	-0.003303420458323776	-0.05221813808620981	-0.03093748282638044	-0.01493062587863188	0.2247057351930015	0.007415761848376397	0.06008351864349926	-0.1081157938760426	0.2208611087691665	0.2208611087691728	-0.07429046527564213	0.001514518116859421	0.06959426129166849	0.02342976896617091	0.2240496617129764	-0.1810363625734684	-0.04078950751208142	-0.3912604004157777	0.3635749073959749	-0.1171043453360734	-0.1236175950063693	-39.10479847813762	68.08097959025916	-29.37516553937556	-5.779805018062558	-21.16269276891041	-674.6520366602679	76.61519355303304	-2.697460520485794	-1.500976464356425	-0.7652284422138883	11.18559165101051	0.2929905455736697	2.667118694567549	-5.020257459897107	10.9709913432802	10.9709913432804	-3.499504426969934	0.3820543069959227	3.444884208274266	1.085727990372806	2.606951227358989e-07	1.080405474341582e-07	-1.706637039915641e-06	3.19830935211188e-07	1.428398095559462e-07	-4.53483268997852e-07	-6.954143695364174e-07
0.03	-0.007460663954779128	0.09546829012952467	0.9423860809383307	0.1813126684221676	-0.2320482348677558	-0.2586244283349957	-0.04103023253473332	0.07814908706922025	0.07814908706921618	0.1728592720340686	0.1729751548964182	0.03403845495880169	-0.003014387811111431	-0.07739850604313024	-0.04570078484156825	-0.02237577681547569	0.3325239564621951	0.0105835187812606	0.08806237085212899	-0.1586637229507948	0.3270444081302111	0.3270444081302014	-0.1088982108201087	0.002854369259984906	0.1029572879207313	0.0342825915670322	0.2167884382233551	-0.1833912830895952	-0.03884558218555244	-0.3829639646380651	0.3506138980443806	-0.1090785475077709	-0.1179124047672252	-39.19569032564607	64.31170884984162	-26.63104588300467	-6.124187718849684	-19.17032644907115	-673.4714241711908	80.85095750757667	-2.408270554418174	-1.455174812055067	-0.7363055981381083	10.50239758270433	0.3205551576401633	2.840603272012436	-5.018589152191248	10.36749352605674	10.36749352605409	-3.398694934972168	0.002969273296902748	3.253646480555363	1.070700337486853	2.903298708474354e-07	1.148638113969685e-07	-1.885370782933887e-06	3.636639930197548e-07	1.669007595584075e-07	-5.982902502652625e-07	-7.877384066438545e-07
0.04	-0.008357207540242315	0.09493893877210396	0.9421247364964885	0.1851640763926372	-0.2319279197304969	-0.2576076847701244	-0.04286069749642739	0.08193802828418349	0.0819380282841834	0.171604362399423	0.1730092383179632	0.03523011713545626	-0.002619698749381589	-0.1017766988449469	-0.06011079653506991	-0.02990681490103622	0.4372405864446084	0.01342675133392142	0.1151346145808273	-0.2070727928626019	0.4302474792328623	0.4302474792328311	-0.1417973690360617	0.003914970616151987	0.135185698163115	0.04456105186965587	0.20952721473373	-0.1857462036057265	-0.03690165685897268	-0.374667528860366	0.3376528886927832	-0.1010527496794748	-0.1122072145280795	-39.31963988694816	60.63750625256714	-23.88929250239821	-6.446473531769469	-17.34891479177609	-670.8141770539853	84.81805442925899	-2.53702548946488	-1.430318400019372	-0.7824058719572263	10.56527339365449	0.2280856695290245	2.485796998581242	-4.592485627308009	10.37494569160153	10.37494569160064	-3.157786961267278	0.3262043496042565	3.217960930938236	0.9708555307252679	3.194377367271205e-07	1.215502071091179e-07	-2.060628770882587e-06	4.083470412781423e-07	1.905675051420013e-07	-7.410825772835654e-07	-8.800224611212585e-07
0.05	-0.009494344113751173	0.09426733592822417	0.941787308416111	0.1900485606745231	-0.231780643915076	-0.2563274587167708	-0.04516396816084885	0.08674556025180787	0.08674556025180595	0.1700288042008856	0.173055152740494	0.03673892636762256	-0.002124746881987864	-0.1255250485930534	-0.07413841631634138	-0.03761448561787135	0.5391356986448853	0.01598692050702663	0.1407307982955453	-0.2532392473178771	0.530763352009524	0.5307633520094682	-0.1730294750924647	0.005214942370931216	0.1663991031808159	0.05435261861096287	0.2023262660145323	-0.1750956981558135	-0.03508722715032875	-0.3680058922239796	0.329574300185289	-0.1049580840841751	-0.106565738418875	-39.47410287820043	58.05736474532541	-26.10623626033846	-6.014112473811377	-16.03498806603563	-668.5186982419028	78.75057551462194	-2.274866242882911	-1.378242074239052	-0.7704497084340987	9.92356769011929	0.2635305093989014	2.569677081095673	-4.57741144879055	9.815509605622999	9.815509605619848	-3.063484028362309	0.02409486482733599	3.04653625958915	0.9715229250135945	3.083665277854324e-07	1.127295273362421e-07	-1.960873314007551e-06	4.358507799816607e-07	1.916700513762968e-07	-8.110899058555954e-07	-8.904079420841005e-07
